<?xml version="1.0" encoding="utf-8"?>
<!-- Generator: Adobe Illustrator 25.4.1, SVG Export Plug-In . SVG Version: 6.00 Build 0)  -->
<svg version="1.1" id="Layer_1" xmlns="http://www.w3.org/2000/svg" xmlns:xlink="http://www.w3.org/1999/xlink" x="0px" y="0px"
	 viewBox="0 0 612 792" style="enable-background:new 0 0 612 792;" xml:space="preserve">
<style type="text/css">
	.st0{fill:#FFFFFF;}
	.st1{fill:#FFFFFF;stroke:#FF0000;stroke-width:1.333333e-03;stroke-miterlimit:23.7036;}
	.st2{fill:none;stroke:#FF0000;stroke-width:1.333333e-03;stroke-miterlimit:9.4815;}
	.st3{fill:#FFFFFF;stroke:#FF0000;stroke-width:1.000000e-03;stroke-miterlimit:10;}
	.st4{fill:none;stroke:#000000;stroke-width:0.5;stroke-miterlimit:10;}
	.st5{fill:none;stroke:#000000;}
</style>
<g id="cut">
	
		<g id="Layer_1_00000022524661842492094810000015206673701088532620_" inkscape:version="0.92.4 (5da689c313, 2019-01-14)" sodipodi:docname="Bubble Pack templatev2.svg" xmlns:cc="http://creativecommons.org/ns#" xmlns:dc="http://purl.org/dc/elements/1.1/" xmlns:inkscape="http://www.inkscape.org/namespaces/inkscape" xmlns:osb="http://www.openswatchbook.org/uri/2009/osb" xmlns:rdf="http://www.w3.org/1999/02/22-rdf-syntax-ns#" xmlns:sodipodi="http://sodipodi.sourceforge.net/DTD/sodipodi-0.dtd" xmlns:svg="http://www.w3.org/2000/svg">
		<g id="Layer_2_1_" transform="scale(1.3333333)">
			<rect id="rect4" class="st0" width="459" height="594"/>
		</g>
		<g id="svg15158" transform="scale(1.3333333)" inkscape:version="0.91 r13725" sodipodi:docname="AxiDraw_First.svg">
			<path id="path11" inkscape:connector-curvature="0" class="st1" d="M313,56.6h-12.6V44.7c0-17.2-14.1-31.2-31.3-31.2h-79.4
				c-17.2,0-31.2,14-31.2,31.2v11.9h-12.7c-17.2,0-31.2,14-31.2,31.2v130.8v12.1v275.4c0,17.2,14,31.2,31.2,31.2h12.6v11.9
				c0,17.2,14,31.2,31.2,31.2H269c17.2,0,31.2-14,31.2-31.2v-11.9h12.6c17.2,0,31.2-14,31.2-31.2V230.7v-12.1V87.9
				C344.2,70.7,330.1,56.6,313,56.6L313,56.6z"/>
			<path id="path7" inkscape:connector-curvature="0" class="st1" d="M255,43.4h-15.9c0-0.1,0-0.1,0-0.1c0-5.3-4.3-9.7-9.7-9.7
				c-5.3,0-9.7,4.4-9.7,9.7c0,0.1,0,0.1,0,0.2h-15.9c-2.8,0-5,2.3-5,5v1.9c0,2.8,2.3,5,5,5H255c2.8,0,5-2.3,5-5v-1.9
				C260,45.7,257.8,43.4,255,43.4z"/>
			<path id="path9" inkscape:connector-curvature="0" class="st1" d="M203.8,550.6h15.9c0,0.1,0,0.1,0,0.2c0,5.3,4.3,9.7,9.7,9.7
				c5.3,0,9.7-4.3,9.7-9.7c0-0.1,0-0.1,0-0.2H255c2.8,0,5-2.3,5-5v-1.9c0-2.8-2.3-5-5-5h-51.2c-2.8,0-5,2.3-5,5v1.9
				C198.8,548.3,201.1,550.6,203.8,550.6z"/>
			<g id="g19">
				<line id="line13" class="st2" x1="115.3" y1="297" x2="117.5" y2="297"/>
				<line id="line15" class="st2" x1="122.2" y1="297" x2="339.7" y2="297"/>
				<line id="line17" class="st2" x1="342.1" y1="297" x2="344.3" y2="297"/>
			</g>
		</g>
	</g>
	<g id="Layer_2_00000013912125050970719890000004805539038599208331_">
	</g>
	<rect x="177.2" y="229.1" class="st3" width="261.4" height="112.3"/>
	<rect x="175.3" y="451.8" class="st3" width="261.4" height="112.3"/>
</g>
<g id="axidraw">
	<g>
		<path class="st4" d="M125.3,22.5c16.7-1.9,37.5-10.9,53.5-4.3c18.9,7.8,22,16.5,44.7,10.5c25.9-6.8,58.3-16.5,84.3-6.2
			c16.6,6.6,26.3,15.4,43.6,7.6c15-6.7,18.7-9,34.2-0.2c7.2,4.1,13.9,10.4,22.9,8.9c11-1.8,14.7-15.5,23.5-18.6c9.1-3.2,16,4.1,24,7
			c15.8,5.8,18.5,4.8,34.4-4.6"/>
		<path class="st4" d="M125.3,28.4c17-2.9,36.6-9.6,53.4-3.8c18.4,6.4,23.5,13.7,44.8,9c27-6,58.2-16.9,84.3-5.2
			c16.1,7.2,25.7,14.3,42.7,7.3c15.3-6.3,19.5-8.7,35.1-0.3c7.2,3.9,14.1,9.9,23,8.4c10.8-1.7,14.7-14.7,23.4-17.7
			c9.1-3.1,16.2,4.1,24.2,7c15.7,5.6,18.4,4.7,34.1-4.7"/>
		<path class="st4" d="M125.3,34.2c17.2-3.9,36-8.7,53.3-3.2c17.6,5.6,25.2,11,44.9,7.4c28.3-5.1,57.8-17.4,84.4-4.2
			c15.4,7.6,25.4,13.6,41.9,7c15.3-6.1,20.5-8.2,36-0.4c7.3,3.7,14.3,9.4,23.1,8c10.6-1.7,14.7-13.9,23.4-16.8
			c9.1-3,16.3,4.1,24.4,6.9c15.6,5.5,18.3,4.6,33.9-4.7"/>
		<path class="st4" d="M125.3,40.1c17.4-5,35.4-7.6,53.2-2.6c16.7,4.7,26.9,8.4,45,5.9c28.7-4,58.4-19,84.4-3.2
			c14.4,8.7,25.3,12.4,41,6.7c15.6-5.6,21.3-7.9,36.9-0.5c7.3,3.5,14.4,8.8,23.1,7.5c10.4-1.6,14.8-13.1,23.3-15.9
			c9.1-3,16.5,4.1,24.6,6.9c15.4,5.3,18.2,4.5,33.6-4.8"/>
		<path class="st4" d="M125.3,69.3c19.2-11.9,32-1.1,52.6,0.2c14.9,1,30-3,45.5-1.9c16.3,1.1,26,2.6,40.5-5.9c21.3-12.5,24-6,44,7.6
			c25.1,17.1,50.7-4.6,78.2,4.3c7.6,2.5,15.1,6.2,23.5,5.2c9.3-1.1,14.9-9.2,23.1-11.4c9.4-2.4,17.2,4.2,25.6,6.8
			c14.9,4.6,17.6,3.9,32.2-5"/>
		<path class="st4" d="M125.3,63.5c19-10.4,32.5-2.1,52.7-0.3c14.8,1.3,30.3-0.8,45.4-0.3c15.8,0.5,26.6,1.2,40.9-6.2
			c20.4-10.6,24.8-6.7,43.6,6.9c25.4,18.3,50.5-5.1,78.2,4.7c7.6,2.7,15,6.8,23.4,5.7c9.5-1.2,14.9-10,23.1-12.3
			c9.3-2.6,17,4.1,25.4,6.8c15,4.8,17.7,4,32.5-5"/>
		<path class="st4" d="M125.3,57.6c18.6-8.9,33.2-3.6,52.8-0.9c14.9,2,30.2,1.4,45.2,1.2c15.3-0.2,27.2-0.1,41.3-6.5
			c19.9-9.1,24.9-6.5,43.2,6.2c26.7,18.6,50-5.7,78.1,5.1c7.5,2.9,14.9,7.3,23.3,6.2c9.7-1.3,14.8-10.7,23.2-13.2
			c9.2-2.7,16.9,4.1,25.2,6.8c15.1,4.9,17.9,4.1,32.8-4.9"/>
		<path class="st4" d="M125.3,51.8c30.5-12.5,65.7,3.1,98.1,1.3c14.8-0.8,27.8-1.3,41.7-6.9c19.3-7.7,25.1-6.3,42.8,5.6
			c28,18.7,49.5-6.3,78.1,5.5c7.5,3.1,14.7,7.8,23.3,6.6c9.9-1.4,14.8-11.5,23.2-14.1c9.2-2.8,16.8,4.1,25,6.8
			c15.2,5.1,18,4.2,33.1-4.9"/>
		<path class="st4" d="M125.3,45.9c33.9-11.7,64,5.6,98.1,2.3c14.4-1.4,28.3-2.5,42-7.2c18.6-6.3,25.4-6,42.4,4.9
			c13.9,8.9,24.7,11.5,40.2,6.4c15.8-5.2,22.1-7.6,37.8-0.6c7.4,3.3,14.6,8.3,23.2,7.1c10.2-1.5,14.8-12.3,23.3-15
			c9.2-2.9,16.6,4.1,24.8,6.9c15.3,5.2,18.1,4.3,33.3-4.8"/>
		<path class="st4" d="M125.3,73.9c19.3-13.3,31-0.6,51.3,0.6c14.7,0.9,28.9-4.9,44.5-3.3c18.9,1.9,27.1,3.9,43.6-6.1
			c19-11.5,23.6-7.2,41.9,6.8c14.6,11.2,23.4,9.9,41.2,6c15.9-3.5,25-4,40.8,0.9c6.3,1.9,11.6,4,18.3,3.9
			c11.2-0.3,17.5-8.9,27.2-10.8c6.8-1.4,13.7,2.7,19.6,5.1c16.7,7,21.2,6.7,36.9-3.1"/>
		<path class="st4" d="M125.3,79.7c19.5-15,30.5,0.5,51.1,1.2c15.4,0.5,27.8-7.4,44.7-5.1c19.5,2.7,26.5,5.6,43.2-5.7
			c18.8-12.7,23.5-7.7,41.8,7.1c14.2,11.5,23.2,9.7,40.9,6.1c15.9-3.2,25.7-3.7,41.6,0.7c6.3,1.7,11.8,3.7,18.3,3.5
			c10.9-0.3,17.6-8.1,27.2-9.9c6.9-1.3,13.8,2.7,19.8,5.1c16.6,6.8,21.1,6.5,36.6-3.2"/>
		<path class="st4" d="M125.3,85.6c19.5-15.4,30.3,1.5,51,1.7c16.1,0.2,27-9.5,44.8-6.6c19.9,3.3,26,7.9,42.9-4.5
			c18.6-13.6,23.4-8.6,41.7,6.8c23.3,19.6,54.5-0.9,82.9,6.2c6.3,1.6,11.9,3.5,18.4,3.4c10.8-0.2,17.6-7.4,27.1-9.1
			c7-1.3,13.8,2.4,20,4.9c16.5,6.6,20.8,6.5,36.3-2.8"/>
		<path class="st4" d="M125.3,91.4c19.2-11.8,31.9,2.6,52.2,1.7c16.3-0.7,27.5-10.5,45.6-7.4c17.4,3,24.3,10.7,40-1
			c21.5-16,23.4-8,44.8,6.7c24.4,16.8,51.7-4.4,78.7,1.3c7.9,1.7,15.7,5.6,23.9,5.2c9.1-0.4,14.5-6.4,22.6-8.5
			c9.8-2.5,17.4,2.6,26.4,5.3c14,4.2,16.8,4.1,30.9-3.3"/>
		<path class="st4" d="M381,114.5c2.9-0.7,6-0.8,9.4-0.3c7.9,1.3,14.1,6.8,21.9,8.4c10.2,2.1,13.5-1.5,22.9-5
			c19.9-7.4,34.5,5.6,55.3,3.1"/>
		<path class="st4" d="M125.3,120.7c16.6,2.3,33.7,4.3,50.4,1.9c16.7-2.3,27-18.4,42.4-20.8c4.1-0.6,7.6-0.1,10.8,1.2"/>
		<path class="st4" d="M381,109.9c2.9-0.5,5.9-0.5,9,0.1c7.7,1.4,14,6.3,21.7,7.5c9.9,1.6,14-2.3,23.2-5.4c19.6-6.7,35,6.8,55.6,2.7
			"/>
		<path class="st4" d="M125.3,114.8c16.7,0,34,3.9,50.5,2c16-1.8,27.4-16.6,42.8-18.1c4.1-0.4,7.7,0.4,11,1.7"/>
		<path class="st4" d="M381,105.4c2.8-0.3,5.7-0.2,8.7,0.4c7.5,1.5,13.9,5.8,21.5,6.7c9.6,1.1,14.5-3.1,23.4-5.9
			c19.7-6.1,35,8.1,55.8,2.3"/>
		<path class="st4" d="M268.6,100.4c2.6-2.1,5.4-4.1,8.5-4.9c8.4-2,14.4,0.8,20.2,4.9"/>
		<path class="st4" d="M125.3,109c17.3-2.4,33.6,3.7,50.6,2.1c15.5-1.4,27.7-14.8,43.2-15.3c6.5-0.2,11.8,2.1,16.8,4.7"/>
		<path class="st4" d="M230.6,136.8c-0.5-0.3-1.1-0.5-1.6-0.7"/>
		<path class="st4" d="M258.7,100.4c0.7-0.3,1.4-0.6,2.2-1c6.1-3.2,10-8.5,17-10.1c12.9-3,17.1,3.9,26.4,11.2"/>
		<path class="st4" d="M381,100.4c2,0,3.9,0.1,5.9,0.3c7,0.8,13.5,5.9,20.5,6.6c12.9,1.4,17-4.1,28.6-6.9c9.2-2.2,13.8-0.3,22.9,2.5
			c13.9,4.2,16.6,5.6,31.6,0.2"/>
		<path class="st4" d="M125.3,103.1c17.8-5.1,31.6,2.8,49.3,2.1c17-0.7,30.1-13.8,47.7-12.2c8.7,0.8,14.8,5,21,7.4"/>
		<path class="st4" d="M353.4,100.4c11.5-2.6,23.4-5.4,35.9-3.1c6.6,1.2,13,5.3,19.8,5.5c9.7,0.3,14.2-4.5,22.9-7.1
			c11.8-3.6,16.6-0.3,27.4,3.1c13.9,4.3,16.8,4.9,31.2-1.6"/>
		<path class="st4" d="M125.3,97.3c19.2-8.6,34,3.7,53.5,1.5c14.7-1.7,25.7-10.8,41.4-9.3c18.4,1.7,25,12.9,41.8,3.1
			c20.3-11.8,22.2-14.3,43.9,2.5c3,2.3,6,4.1,9,5.4"/>
		<path class="st4" d="M381,118.8c3-0.8,6.2-1.2,9.7-0.6c8.1,1.3,14.1,7.2,22,9.2c10.5,2.6,13-0.7,22.7-4.6
			c20.5-8.2,33.8,4.4,55.1,3.5"/>
		<path class="st4" d="M125.3,126.3c16.9,4.5,33,4.7,50.3,1.9c17.8-2.8,26.1-18.9,42.1-23c4.4-1.1,8-0.7,11.2,0.7"/>
		<path class="st4" d="M381,123.3c3-1.1,6.3-1.5,10-0.9c8.4,1.2,14.2,7.6,22.2,10c10.8,3.2,12.4,0.2,22.4-4.1
			c21.2-9.1,32.8,2.9,54.9,3.9"/>
		<path class="st4" d="M316.7,136.8c10.2,5.2,20.3,7.4,33.4,4.6c4-0.8,7.4-2.6,10.6-4.6"/>
		<path class="st4" d="M125.3,132.2c17.5,7,31.9,5.1,50.2,1.8c8.7-1.6,15.1-3.2,22.3-8.7c6-4.6,11.9-14,19.4-16.2
			c4.6-1.4,8.4-1,11.7,0.5"/>
		<path class="st4" d="M253.4,136.8c1.8,0.5,3.7,0.8,5.9,0.6c1.6-0.1,3.2-0.3,4.6-0.6"/>
		<path class="st4" d="M381,126.7c2.4-1,4.9-1.6,7.6-1.4c7.9,0.4,15.4,7.4,21.9,10.8c13.6,7.1,14.8,2.1,26.9-3.4
			c20.5-9.3,31.9,2.7,53,5.3"/>
		<path class="st4" d="M305.9,136.8c0.7,0.4,1.4,0.8,2,1.3c12.6,8,26,13.7,41.5,10.5c7.2-1.5,12.9-6.6,18.3-11.7"/>
		<path class="st4" d="M125.3,138c17.6,9.5,29.8,6,48.7,2.1c10.9-2.3,17.8-4.6,26.6-11.9c6.2-5.2,10.5-13,18.9-14.6
			c3.8-0.7,6.8-0.3,9.5,0.9"/>
		<path class="st4" d="M381,131.1c2.4-1.2,5-1.9,7.9-1.8c8,0.2,15.8,7.8,22.2,11.5c13.7,8,14.4,3.2,26.6-2.8
			c21.2-10.3,31.2,1.1,52.7,5.8"/>
		<path class="st4" d="M243,136.8c4,5.5,8.6,9.9,16.1,9.3c22-1.7,26-15.9,48.9-2.2c12.9,7.7,26.2,14.5,42,11.2
			c10.2-2.1,16.5-11.5,23.5-18.3"/>
		<path class="st4" d="M125.3,143.9c18.2,12.2,28.6,6.9,48.6,2.1c10.8-2.6,17.8-4,26.5-11.5c6.2-5.3,10.1-13.7,18.6-15.3
			c4-0.8,7.2-0.2,9.9,1.3"/>
		<path class="st4" d="M125.3,173.1c17.9,5,30.2-5.5,47.8-3.8c9.1,0.9,17.7,7.3,27.4,4.9c8-2,13.5-10.7,21-13.2
			c21.5-7.3,21.8,21.2,40.3,23.1c16.2,1.7,27.5-14,45.5-11.2c13.2,2,22.6,1.5,36.1,0.2c15.6-1.5,32.3-7,47.5-7.1
			c15.6,0,29.9,6.9,45.7,6.9c18,0,35.9,0,53.9,0.3"/>
		<path class="st4" d="M125.3,167.3c18.7,7,29.7-3.3,48.3-2.6c8.8,0.3,17.2,5.4,26.3,2.3c7.6-2.6,13-11.8,20.5-14.3
			c21.4-7.1,22.2,22.8,40.5,24.4c17.3,1.6,26.7-14.6,46.3-10.1c13.9,3.2,23.2,4.3,37.8,2.5c15.6-1.9,31-11.2,46.1-10.8
			c16.4,0.4,28.4,9.1,45.4,7.3c18.7-1.9,35.2,0,54,1.2"/>
		<path class="st4" d="M125.3,161.4c18.6,8.8,28.2-0.2,47.2-1.4c11.3-0.7,19.2,2.8,29.9-3c6.9-3.8,11.5-11.4,19.4-13
			c19.7-4.1,20.7,25.3,39.6,25.2c19.2-0.1,25.4-15.8,46.5-7.8c13.1,5,23.2,6.7,37.5,4.9c6.3-0.8,15.5-1.6,21.2-4.4
			c8-3.9,11.9-11.1,21.9-11.3c7.9-0.1,15.3,4.8,22.5,7.4c12.7,4.5,14.7,3.3,27.1,0.7c19-4.1,33.3,0.5,52.4,2.7"/>
		<path class="st4" d="M230.6,136.8c11.1,5.7,14.4,25.6,29.9,25.1c20.2-0.6,25.5-16.4,47.4-6.3c13.2,6,24.3,9.7,39.2,7.3
			c6.4-1,14.3-2.9,19.9-6.3c7.8-4.9,10.9-13.4,21.7-13.4c8.1,0,15.3,6.1,22.4,9c13.7,5.6,13.9,3.6,26.9-0.5
			c20.1-6.4,32.3,0.6,52.5,3.9"/>
		<path class="st4" d="M125.3,155.6c18.7,10.6,28.1,2.4,47.7-0.1c11-1.4,18.7,0.4,28.6-6.1c6.7-4.3,10.9-12.2,19.1-13.9
			c3.2-0.6,5.9-0.4,8.2,0.5"/>
		<path class="st4" d="M238.1,136.8c5.7,8.2,10.5,18.3,21.6,17.6c21-1.2,25.8-16.7,48.3-4.7c13.1,7,25.5,12.7,41,9.8
			c16.5-3.2,24.3-24,40-23.8c8,0.1,15.8,7,22.3,10.7c13.4,7.5,14.3,3.5,26.7-1.8c20.9-8.9,31.5,0.6,52.6,5.1"/>
		<path class="st4" d="M125.3,149.7c18.6,12.2,28.1,5.2,48.2,1.2c10.8-2.2,18.2-2.1,27.3-9.2c6.4-4.9,10.3-13.2,18.8-14.8
			c3.7-0.7,6.7-0.2,9.3,1"/>
		<path class="st4" d="M125.3,178.7c17.9,3.3,31.4-7.7,49.1-4.6c8.9,5.9,18.6,8.1,29,6.4c7.4-3.9,14.6-8.2,21.6-12.8
			c20-5.7,21.8,22.6,41.3,22.9c7.2-2.1,14-5.3,20.3-9.4c6.7-4.3,13.7-5.1,21.2-2.4c12-0.1,22.7-1.7,34.9-2.6
			c9.3-0.3,18.5,0.2,27.7,1.5c7.2-4,14.9-5.6,23.2-4.9c16.5,0.5,32.5,6.3,49,7.3c16,1,31.9-0.7,47.8-1.3"/>
		<path class="st4" d="M125.3,184.6c17.3,1.6,31.5-9.6,48.7-5.7c9,6.7,19.1,9.7,30.1,9c7.7-3.3,15.1-7.3,22-12
			c20.4-6.1,21.5,21.5,41.2,21.8c7.2-1.8,13.9-4.9,20-9.3c6.3-4.5,13.2-5.8,20.6-3.8c10.8-1.1,22.1-4.3,33.1-5
			c10,0.1,19.8,1.5,29.4,4.3c7.4-2.7,15.1-4,23-4c17.3-0.3,32.6,5.2,49.4,7.8c16.3,2.5,31.5-1.7,47.7-3.2"/>
		<path class="st4" d="M125.3,190.5c17-0.1,31.1-11.5,48.2-6.7c9.2,7.4,19.6,11.3,31.3,11.6c8-2.6,15.5-6.3,22.4-11.3
			c20.8-6.6,21.2,20.4,41,20.7c7.3-1.5,13.8-4.6,19.7-9.1c5.9-4.7,12.6-6.4,20-5.2c9.8-1.9,21.3-6.8,31.3-7.4
			c10.8,0.5,21.1,2.9,31.1,7.1c7.6-1.4,15.2-2.4,22.8-3c19.5-1.4,31.4,3.9,49.8,8.4c16.8,4,31.1-2.6,47.5-5.1"/>
		<path class="st4" d="M125.3,196.3c17-1.7,30.3-13.5,47.8-7.8c9.4,8.2,20.2,12.9,32.4,14.3c8.3-1.9,15.9-5.4,22.8-10.5
			c21.1-7.2,20.8,18.8,40.8,19.5c7.3-1.2,13.7-4.2,19.3-9c5.6-4.8,12.1-7,19.5-6.5c9-2.7,20.1-9.2,29.6-9.8
			c11.6,1.1,22.5,4.4,32.9,9.9c7.6-0.1,15.2-0.8,22.7-2c22.5-2.7,29.4,2.3,50.1,8.9c17.5,5.6,30.6-3.6,47.3-6.9"/>
		<path class="st4" d="M125.3,225.6c16.5-10.3,26.1-20.1,46.2-10.6c9.3,9.6,20.4,15.8,33.3,18.4c8.6-0.8,16.6-3.5,24-8.1
			c22-7.3,20.9,14.6,41.5,16.1c11.9,0.9,26.5-12.1,37.7-15.9c9-3,22-8,31.7-8.1c10.6,1.1,20.9,3.8,30.8,8c7.6-1,15.1-2.3,22.5-3.9
			c7.9-1.8,15.9-2.3,24-1.5c10.6,2.9,20,8.2,28.1,16c19.5,8.1,28.1-4.9,45.6-10.5"/>
		<path class="st4" d="M125.3,219.7c16.9-8.5,26.8-19.3,46.4-10.3c9.5,9.6,20.7,15.8,33.7,18.7c8.7-0.7,16.6-3.5,23.8-8.4
			c22.1-7.8,20.4,15,41.2,16.5c11.4,0.9,27-12.5,37.5-16.6c8.6-3.4,20.5-9.8,29.9-10.1c11.4,1.5,22.3,4.9,32.6,10.3
			c7.6,0.1,15.1-0.7,22.5-2.7c7.9-2.1,15.9-3,24.1-2.7c10.6,2.4,19.8,7.6,27.6,15.7c19.3,8.3,28.7-5,46-10.5"/>
		<path class="st4" d="M125.3,213.9c17.1-6.8,27.5-18.4,46.7-10.1c9.7,9.6,21,15.9,34.1,19c8.7-0.6,16.6-3.5,23.7-8.6
			c22.1-8.4,19.9,15.4,40.9,17c10.8,0.8,27.6-12.9,37.2-17.3c8.2-3.8,18.8-11.6,28.1-12.2c12.2,1.9,23.7,6.1,34.3,12.7
			c7.6,1.3,15,0.8,22.4-1.4c7.9-2.3,16-3.6,24.2-3.8c10.6,1.9,19.7,7,27.1,15.4c19,8.4,29.3-5.1,46.5-10.6"/>
		<path class="st4" d="M125.3,208c17.2-5.1,28.2-17.6,46.9-9.8c9.8,9.6,21.4,16,34.6,19.3c8.8-0.5,16.6-3.5,23.5-8.9
			c22.1-9,19.4,15.8,40.5,17.4c10.2,0.8,28.2-13.3,37-18c8-4.3,17-13.4,26.3-14.3c21.7-2.1,34.8,19.8,58.5,14.8
			c7.9-2.5,16.1-4.2,24.3-5c10.6,1.3,19.5,6.4,26.5,15c18.8,8.5,29.8-5.2,47-10.6"/>
		<path class="st4" d="M125.3,202.2c17.1-3.4,29.3-15.5,47.4-8.8c9.6,8.9,20.8,14.5,33.5,16.9c8.6-1.2,16.3-4.4,23.2-9.7
			c21.6-8.1,20.2,17.2,40.7,18.4c7.3-0.9,13.6-3.9,19-8.9c5.3-5,11.6-7.6,18.9-7.9c8.4-3.5,18.5-11.5,27.8-12.2
			c12.4,1.8,23.9,6,34.6,12.6c7.6,1.2,15.1,0.9,22.5-1c8-2,16-3.1,24.2-3.4c10.1,1.3,18.8,5.5,26.3,12.8c18.2,7.1,30.2-4.4,47.2-8.8
			"/>
		<path class="st4" d="M125.3,230.1c16.2-11.7,25.6-20.7,46-10.7c9.1,9.6,20.1,15.7,32.9,18.1c8.6-0.9,16.6-3.5,24.1-7.9
			c22-6.8,21.3,14.3,41.7,15.8c12.3,0.9,26.2-11.9,37.9-15.3c9.5-2.8,23.1-6.5,33.1-6.5c10,0.9,19.8,2.9,29.4,6.2
			c7.5-1.8,15-3.4,22.5-4.9c25.7-4.1,29.9,6.4,52.4,15.7c19.6,8.1,27.7-4.8,45.2-10.5"/>
		<path class="st4" d="M125.3,236c13.6-11.7,25.2-21.7,43.6-12.2c10.5,5.4,19.6,17.4,32.1,18.9c8.4,1,16.4-3.8,24-6.3
			c6-2,11.9-5.4,18.5-3.1c8.1,2.8,12.6,14.7,22.3,16.7c14.5,3,28.5-11,42-13.8c27.8-5.7,54.8-1.5,82.3-6.3
			c19.3-3.3,32,1.3,48.2,11.5c23.3,14.7,30.1,1.7,52.1-5.4"/>
		<path class="st4" d="M125.3,241.8c13-13.3,24.5-22.6,43.3-12.5c10.3,5.5,19.3,17.2,31.8,18.6c8.3,0.9,16.5-3.8,24.1-6.2
			c6.2-1.9,12.4-5.1,19-2.7c8.1,2.9,12.5,14.1,22.1,16c14.6,3,28.5-10.7,42.2-13c11.3-1.9,24.2-2.6,35.6-2.5
			c17.2,0.1,30-2.4,46.7-5.3c19-3.3,32.5,3.3,48.4,13c9.7,5.9,17.4,9.8,28.4,6.5c9.4-2.8,12.6-10.9,23.5-11.9"/>
		<path class="st4" d="M125.3,247.7c11.6-14,22.5-23.3,41-13.8c12.9,6.6,21.7,19.2,37.2,18.8c8.3-0.2,15-4.1,22.9-6.2
			c19.5-5.2,22.5,10,40.1,13.4c14.5,2.8,27.1-10.2,41.3-12.2c11.4-1.6,24.4-0.3,36-0.3c6.8,0,15.6,1.6,22.2,0.2
			c7.3-1.6,14-7.1,21.5-8.8c20.4-4.7,36.5,6,53.5,15.5c9.7,5.4,16.8,8.7,27.2,5c8.9-3.1,11.6-10.8,22.2-11.6"/>
		<path class="st4" d="M125.3,276.9c11.1-15.9,22-21.7,41-13c12.4,5.7,20,15.9,34.6,16.1c7.7,0.1,15-2.6,22.5-3.8
			c17.5-2.8,26.1,6.3,42.3,8.3c14.6,1.8,27.6-8.1,42.3-7.6c14.2,0.5,27.7,8.8,42.3,7.4c16.6-1.6,22.5-17,37.8-20.7
			c19.6-4.7,37.5,11.3,53.6,19.7c9.7,5.1,17.3,8.6,27.7,4.9c8.6-3.1,10.8-10.7,21.2-11.3"/>
		<path class="st4" d="M125.3,271.1c11.2-22.6,23.5-23.3,45-11.1c9.2,5.2,16.4,12.7,26.7,14.2c9.5,1.4,18.2-3.6,27.3-5.2
			c19.4-3.4,25.9,10.7,44,11.7c13.9,0.7,25.7-9.1,39.6-9.5c13.6-0.4,26.7,7.2,40.3,7.2c19.1,0,23.1-16.5,40-21.1
			c18.6-5.1,34.8,11.1,50,19.1c10.6,5.6,21.5,11.1,32.9,5.7c7.6-3.6,9.4-10.5,19.3-10.9"/>
		<path class="st4" d="M125.3,265.2c11.4-22.5,23.4-23.7,45-11.3c9.3,5.3,16.6,13.2,27.2,14.7c9.7,1.4,18.3-4,27.5-5.8
			c19.9-3.9,25,11.8,43.5,12.8c14,0.8,25.5-9.6,39.4-10.5c13.2-0.8,26,5.5,39.1,5.7c19.1,0.3,24.3-14.3,41.1-18.9
			c18.9-5.1,34.7,10.2,50,18.4c10.6,5.6,21.4,11.1,32.9,5.8c7.7-3.6,9.5-10.5,19.4-10.9"/>
		<path class="st4" d="M125.3,259.4c13.3-22.3,25.6-22.2,47.5-9.6c9.4,5.4,16.4,12.9,27.3,13.5c8,0.5,15.1-3.1,22.6-5
			c9-2.3,15-3.7,23.5,0.3c7.9,3.7,11.7,11.4,21.4,12.4c14,1.4,26.6-10.2,40.3-11.3c12.8-1.1,25.6,3.2,38.4,3.3
			c18.5,0.2,27.5-13.4,44.2-16.2s30.7,8.3,44.2,15.9c11.9,6.8,22.6,13.3,35.2,8c8.1-3.4,10.4-10.7,20.5-11.3"/>
		<path class="st4" d="M125.3,253.5c10.9-15.5,21.6-24.2,40.7-14.2c12.8,6.7,21.4,19,36.9,18.6c8.2-0.2,15.2-4,23-5.9
			c19.3-4.7,23,9.8,40.5,13c14.6,2.7,27.2-9.9,41.5-11.5c12.3-1.4,25.4,1.8,37.8,1.7c6.2,0,14.9,0.7,20.8-1.4
			c7.4-2.6,13.1-9,21.2-10.8c20.2-4.6,36.9,8,53.7,17c9.7,5.3,17,8.7,27.5,5c8.7-3.1,11.1-10.8,21.7-11.6"/>
		<path class="st4" d="M125.3,282.5c13.3-13.5,25.2-18.5,43.8-10.5c21.1,9.2,27.2,15.3,50.6,11.4c6.9-1.1,15.3-3.2,22.4-1.9
			c7.5,1.4,14.2,6.6,22.1,7.3c15.2,1.4,28.8-7.5,44.1-5.7c14.6,1.7,27.6,8.7,42.7,6.5c15.8-2.3,24.1-16.7,39.7-19.3
			c18.1-3.1,33.4,9,48.3,17.4c9.8,5.5,18,9.6,28.8,6.3c9.1-2.8,12-10.6,22.7-11.5"/>
		<path class="st4" d="M125.3,288.4c15-11.3,28.4-15.2,46.6-8.1c21,8.3,26.9,12.7,49.7,9.8c7.8-1.4,15.6-2,23.5-1.8
			c7.2,3.6,14.8,5.2,22.8,4.8c13.6-0.4,26.1-7.8,39.9-4.7c15.3,3.4,27.7,11.1,44.2,7.2c15.6-3.6,25.1-17.6,41.5-19.2
			c22.1-2.1,33.8,14.8,52.7,21.9c19.9,7.5,26.7-4.3,44.2-10"/>
		<path class="st4" d="M125.3,294.3c16.8-5.9,29.1-12.7,47.3-6.8c19.1,6.2,27.5,11.7,48,9.8c16.4-1.5,31.1,0.8,47.2-0.1
			c13.7-0.8,26.3-7,40.1-2.9c15.9,4.8,26.4,11.5,43.9,7.2c15.3-3.8,25.9-16.3,41.8-18.1c22.7-2.4,32.7,13.3,52,20.8
			c19.5,7.5,27.4-4.5,44.9-9.9"/>
		<path class="st4" d="M125.3,300.1c17.2-0.6,30.2-9.9,48-5.4c17.2,4.3,28,10.9,46.4,9.8c16-1,32.1-1.7,48-3.2
			c13.8-1.4,26.6-6.3,40.2-1.1c16.6,6.3,25.1,12.1,43.6,7.2c15-4,26.5-15,42.2-16.9c23.2-2.8,31.6,11.8,51.2,19.6
			c19.2,7.6,28.2-4.6,45.6-9.8"/>
		<path class="st4" d="M125.3,329.4c21,15.6,28.7,6.7,51.6,1.6c16.3-3.7,23.1,7.6,38.1,9.3c18.2,2.1,34.9-14.5,51.9-18.5
			c15.7-3.8,28.4-2.8,40.9,7.6c14.6,12.2,19.1,17.2,37.8,9.5c15.1-6.3,26.7-9.7,43-12.7c21.5-3.9,28.8-4,46.2,8
			c21,14.5,34.6,0.3,55.7-4.8"/>
		<path class="st4" d="M125.3,323.5c19.9,11.9,27.3,4.1,47.9,0.4c16.5-2.9,27.7,7.9,43,8.8c32,1.8,59.7-32.2,91.6-9.2
			c16.1,11.6,20.6,15.7,40.1,8.2c13.6-5.2,25.8-9.5,40.2-12.5c7.1-1.5,15.3-3.5,22.6-2.8c12.4,1.1,17,7.5,27.3,13.1
			c21,11.4,31.2-0.6,52.3-6"/>
		<path class="st4" d="M125.3,317.7c19.4,8.6,29-0.6,48.6-1.4c14.5-0.6,26.6,8.2,40.5,9.5c33.4,3.1,61.9-27.6,94.4-6.7
			c15.5,10,22.6,12.9,40.5,6.2c13.8-5.2,26.9-10.7,41.6-13.4c20.1-3.7,28.9,1.3,45.8,10.7c22.5,12.6,31,1.2,53.7-4.9"/>
		<path class="st4" d="M125.3,311.8c17.7,5,30.2-3.9,47.8-2.9c14.4,0.8,27.7,9.1,42.2,9.8c31.5,1.5,63.4-22.3,93.5-5.6
			c15.4,8.6,23.4,12.1,40.9,6.2c13.9-4.6,26.7-11.7,41.3-14.4c19.9-3.6,29.5,2.7,46.3,11.8c23,12.6,30.5,1.4,53.3-5"/>
		<path class="st4" d="M125.3,306c16.9,1.5,31.8-6.9,48.8-4.1c15.6,2.6,28.3,10.3,44.7,9.8c27.1-0.9,63-17.6,89.1-5.6
			c17.3,7.9,23.8,12.7,43.3,7.1c14.7-4.2,27.1-13.7,42.5-15.8c23.6-3.2,30.5,10.2,50.5,18.4c18.8,7.7,29-4.7,46.2-9.7"/>
		<path class="st4" d="M125.3,335.4c21.2,15.5,28.8,6.7,51.8,1.8c16.3-3.5,23.1,7,38.2,8.7c18.2,2,34.5-14.1,51.5-18.1
			c15.6-3.6,28.4-2.5,41,7.6c14.6,11.8,19.2,16.2,37.6,8.9c15.2-6.1,26.9-8.8,43-11.6c20.9-3.5,28.7-4.2,46.1,7.1
			c20.7,13.4,35,0.2,55.8-4.4"/>
		<path class="st4" d="M125.3,341.3c21.3,13.9,30.4,5.6,53.2,1.3c14.2-2.7,22.4,5.2,35.7,7.4c18.5,3.1,33.9-11.4,51.3-15.4
			c16.8-3.9,29.6-1.9,43.4,8c14.3,10.4,20.7,12.7,37.6,6.1c14.8-5.8,28.8-8.1,44.6-10.3c16.8-2.4,26.8-3.4,41.6,5.4
			c22.6,13.4,34.8,2.1,57.9-2.5"/>
		<path class="st4" d="M125.3,347.2c19.4,11.2,28.5,7,49,1.9c16.7-4.2,27.4,5.1,43,6.1c32.5,2.1,57.4-28.9,90.6-8
			c16,10.1,21.1,12.1,39.5,6.2c13.8-4.4,26.1-6.2,40.6-8.3c19.9-2.8,31-1.3,49.2,6.5c19.5,8.3,33.4-0.8,53.3-4.4"/>
		<path class="st4" d="M125.3,353c19,9.7,29.1,6,49,1.7c16.4-3.5,28.2,4.2,43.8,5.3c31.9,2.2,57-25.1,89.8-7
			c15.8,8.7,21.7,10.3,39.5,5.4c13.8-3.8,26.3-5.4,40.5-7.2c19.2-2.4,31.2-1.1,49.2,5.6c19.2,7.2,33.9-0.8,53.4-3.9"/>
		<path class="st4" d="M125.3,382.3c60.3,8.3,122.2-6.3,182.6,0c28.3,2.9,56.2,0.3,84.7-0.7c32.8-1.2,64.9,2.1,97.8,0.7"/>
		<path class="st4" d="M125.3,376.4c18.3,3.9,33.3,1.7,51.7,0.4c15-1.1,29.2,2.3,44.1,2.6c29.8,0.6,56.5-7.9,86.8-3
			c28.5,4.6,55.8,0.5,84.9-1.1c16.7-0.9,30.4,1.1,46.7,3.6c16.8,2.6,34.2-1.4,51-2.5"/>
		<path class="st4" d="M125.3,370.6c19,5.4,32.5,2.4,51.7,0.6c15-1.4,28.5,3.1,43.3,3.5c30.2,0.9,56.9-13.8,87.6-4.1
			c27.5,8.7,56.4,0.6,85.1-1.4c17.5-1.3,29.9,1.4,46.8,4.8c16.7,3.4,34.1-1.9,50.7-3.4"/>
		<path class="st4" d="M125.3,364.7c18.7,6.7,31.2,3.6,50.3,1c14.7-2,27,3,41.4,4c32.8,2.2,58.1-15.9,91.5-4.2
			c26.7,9.4,53.8,0.1,81.9-2.3c16.5-1.4,29-0.7,44.8,3.7c19.5,5.4,35.6,0,55.3-2.2"/>
		<path class="st4" d="M125.3,358.9c19.2,8.3,30.5,4.5,50.3,1.1c14.9-2.5,26.2,3.6,40.5,4.8c16.5,1.4,30.7-7,46.5-9.9
			c16.7-3.1,30.5-1.7,45.9,4.8c26.5,11.3,53.5,0.2,81.9-2.8c17.1-1.8,28.7-0.9,44.8,4.5c19.8,6.6,35,0.1,55.2-2.6"/>
		<path class="st4" d="M125.3,386.8c60.7,4.8,121.9-3.6,182.6,0c60.1,3.6,122.4,1.5,182.6,0"/>
		<path class="st4" d="M125.3,392.7c121.7,0.4,243.4,0.1,365.2,0"/>
	</g>
	<g>
		<path class="st5" d="M246.9,110.3v16.6h-4.3v-7h-1.3v7H237v-16.6h4.3v5.9h1.3v-5.9H246.9z"/>
		<path class="st5" d="M258.5,120c0,1.7,0,2.8-0.1,3.5s-0.3,1.3-0.7,1.9s-1,1-1.7,1.3s-1.5,0.5-2.5,0.5c-0.9,0-1.7-0.1-2.4-0.4
			s-1.3-0.7-1.7-1.3s-0.7-1.2-0.8-1.9s-0.1-1.9-0.1-3.6v-2.8c0-1.7,0-2.8,0.1-3.5s0.3-1.3,0.7-1.9s1-1,1.7-1.3s1.5-0.5,2.5-0.5
			c0.9,0,1.7,0.1,2.4,0.4s1.3,0.7,1.7,1.3s0.7,1.2,0.8,1.9s0.1,1.9,0.1,3.6L258.5,120L258.5,120z M254.1,114.6c0-0.8,0-1.3-0.1-1.5
			s-0.3-0.3-0.5-0.3s-0.4,0.1-0.5,0.3c-0.1,0.2-0.2,0.7-0.2,1.5v7.8c0,1,0,1.6,0.1,1.8s0.3,0.3,0.5,0.3c0.3,0,0.5-0.1,0.6-0.4
			s0.1-0.9,0.1-1.9L254.1,114.6L254.1,114.6z"/>
		<path class="st5" d="M268.8,110.3v3.3h-2.6v13.3h-4.3v-13.3h-2.6v-3.3H268.8z"/>
		<path class="st5" d="M289.7,110.3l-1.9,16.6h-5.4c-0.5-2.6-0.9-5.5-1.3-8.7c-0.2,1.4-0.6,4.3-1.2,8.7h-5.4l-1.9-16.6h4.2l0.5,5.8
			l0.4,5.6c0.2-2.9,0.6-6.7,1.2-11.4h4.5c0.1,0.5,0.2,2.3,0.5,5.5l0.5,6.3c0.2-4,0.6-7.9,1.2-11.8H289.7z"/>
		<path class="st5" d="M300.5,110.3v16.6h-4.3v-7h-1.3v7h-4.3v-16.6h4.3v5.9h1.3v-5.9H300.5z"/>
		<path class="st5" d="M302.2,110.3h7.2v3.3h-2.9v3.1h2.7v3.2h-2.7v3.7h3.2v3.3h-7.5L302.2,110.3L302.2,110.3z"/>
		<path class="st5" d="M310.9,110.3h7.2v3.3h-2.9v3.1h2.7v3.2h-2.7v3.7h3.2v3.3h-7.5L310.9,110.3L310.9,110.3z"/>
		<path class="st5" d="M324,110.3v13.3h2.6v3.3h-6.9v-16.6C319.7,110.3,324,110.3,324,110.3z"/>
		<path class="st5" d="M336.7,115.3h-4v-1.2c0-0.6-0.1-0.9-0.2-1.1s-0.3-0.2-0.5-0.2c-0.3,0-0.5,0.1-0.6,0.3c-0.1,0.2-0.2,0.5-0.2,1
			c0,0.6,0.1,1,0.2,1.3s0.5,0.6,1.2,1c1.9,1.1,3.1,2.1,3.6,2.8s0.7,1.9,0.7,3.5c0,1.2-0.1,2.1-0.4,2.6c-0.3,0.6-0.8,1-1.6,1.4
			c-0.8,0.4-1.7,0.6-2.8,0.6c-1.2,0-2.1-0.2-3-0.7c-0.8-0.4-1.4-1-1.6-1.7c-0.3-0.7-0.4-1.6-0.4-2.9v-1.1h4v2c0,0.6,0.1,1,0.2,1.2
			s0.3,0.3,0.6,0.3s0.5-0.1,0.6-0.3c0.1-0.2,0.2-0.6,0.2-1c0-1-0.1-1.6-0.4-1.9s-0.9-0.8-2-1.5s-1.8-1.2-2.1-1.5
			c-0.3-0.3-0.6-0.8-0.9-1.3c-0.2-0.6-0.3-1.3-0.3-2.2c0-1.3,0.2-2.2,0.5-2.8c0.3-0.6,0.8-1,1.6-1.4s1.6-0.5,2.6-0.5
			c1.1,0,2.1,0.2,2.9,0.5c0.8,0.4,1.3,0.8,1.6,1.4c0.3,0.6,0.4,1.5,0.4,2.8L336.7,115.3L336.7,115.3z"/>
		<path class="st5" d="M352.3,110.3l-2.2,16.6h-6.6l-2.5-16.6h4.6c0.5,4.6,0.9,8.4,1.1,11.6c0.2-3.2,0.5-6,0.7-8.5l0.3-3.1H352.3z"
			/>
		<path class="st5" d="M360.2,110.3l2.5,16.6h-4.4l-0.2-3h-1.5l-0.3,3h-4.5l2.2-16.6H360.2z M358,121c-0.2-1.9-0.4-4.2-0.7-7
			c-0.4,3.2-0.7,5.5-0.8,7H358z"/>
		<path class="st5" d="M373.1,110.3v16.6h-3.8l-2.2-7.5v7.5h-3.6v-16.6h3.6l2.4,7.5v-7.5H373.1z"/>
	</g>
	<g>
		<path class="st4" d="M490.5,766.3c-16.7,1.9-37.5,10.9-53.5,4.3c-18.9-7.8-22-16.5-44.7-10.5c-25.9,6.8-58.3,16.5-84.3,6.2
			c-16.6-6.6-26.3-15.4-43.6-7.6c-15,6.7-18.7,9-34.2,0.2c-7.2-4.1-13.9-10.4-22.9-8.9c-11,1.8-14.7,15.5-23.5,18.6
			c-9.1,3.2-16-4.1-24-7c-15.8-5.8-18.5-4.8-34.4,4.6"/>
		<path class="st4" d="M490.5,760.4c-17,2.9-36.6,9.6-53.4,3.8c-18.4-6.4-23.5-13.7-44.8-9c-27,6-58.2,16.9-84.3,5.2
			c-16.1-7.2-25.7-14.3-42.7-7.3c-15.3,6.3-19.5,8.7-35.1,0.3c-7.2-3.9-14.1-9.9-23-8.4c-10.8,1.7-14.7,14.7-23.4,17.7
			c-9.1,3.1-16.2-4.1-24.2-7c-15.7-5.6-18.4-4.7-34.1,4.7"/>
		<path class="st4" d="M490.5,754.6c-17.2,3.9-36,8.7-53.3,3.2c-17.6-5.6-25.2-11-44.9-7.4c-28.3,5.1-57.8,17.4-84.4,4.2
			c-15.4-7.6-25.4-13.6-41.9-7c-15.3,6.1-20.5,8.2-36,0.4c-7.3-3.7-14.3-9.4-23.1-8c-10.6,1.7-14.7,13.9-23.4,16.8
			c-9.1,3-16.3-4.1-24.4-6.9c-15.6-5.5-18.3-4.6-33.9,4.7"/>
		<path class="st4" d="M490.5,748.7c-17.4,5-35.4,7.6-53.2,2.6c-16.7-4.7-26.9-8.4-45-5.9c-28.7,4-58.4,19-84.4,3.2
			c-14.4-8.7-25.3-12.4-41-6.7c-15.6,5.6-21.3,7.9-36.9,0.5c-7.3-3.5-14.4-8.8-23.1-7.5c-10.4,1.6-14.8,13.1-23.3,15.9
			c-9.1,3-16.5-4.1-24.6-6.9c-15.4-5.3-18.2-4.5-33.6,4.8"/>
		<path class="st4" d="M490.5,719.5c-19.2,11.9-32,1.1-52.6-0.2c-14.9-1-30,3-45.5,1.9c-16.3-1.1-26-2.6-40.5,5.9
			c-21.3,12.5-24,6-44-7.6c-25.1-17.1-50.7,4.6-78.2-4.3c-7.6-2.5-15.1-6.2-23.5-5.2c-9.3,1.1-14.9,9.2-23.1,11.4
			c-9.4,2.4-17.2-4.2-25.6-6.8c-14.9-4.6-17.6-3.9-32.2,5"/>
		<path class="st4" d="M490.5,725.3c-19,10.4-32.5,2.1-52.7,0.3c-14.8-1.3-30.3,0.8-45.4,0.3c-15.8-0.5-26.6-1.2-40.9,6.2
			c-20.4,10.6-24.8,6.7-43.6-6.9c-25.4-18.3-50.5,5.1-78.2-4.7c-7.6-2.7-15-6.8-23.4-5.7c-9.5,1.2-14.9,10-23.1,12.3
			c-9.3,2.6-17-4.1-25.4-6.8c-15-4.8-17.7-4-32.5,5"/>
		<path class="st4" d="M490.5,731.2c-18.6,8.9-33.2,3.6-52.8,0.9c-14.9-2-30.2-1.4-45.2-1.2c-15.3,0.2-27.2,0.1-41.3,6.5
			c-19.9,9.1-24.9,6.5-43.2-6.2c-26.7-18.6-50,5.7-78.1-5.1c-7.5-2.9-14.9-7.3-23.3-6.2c-9.7,1.3-14.8,10.7-23.2,13.2
			c-9.2,2.7-16.9-4.1-25.2-6.8c-15.1-4.9-17.9-4.1-32.8,4.9"/>
		<path class="st4" d="M490.5,737c-30.5,12.5-65.7-3.1-98.1-1.3c-14.8,0.8-27.8,1.3-41.7,6.9c-19.3,7.7-25.1,6.3-42.8-5.6
			c-28-18.7-49.5,6.3-78.1-5.5c-7.5-3.1-14.7-7.8-23.3-6.6c-9.9,1.4-14.8,11.5-23.2,14.1c-9.2,2.8-16.8-4.1-25-6.8
			c-15.2-5.1-18-4.2-33.1,4.9"/>
		<path class="st4" d="M490.5,742.9c-33.9,11.7-64-5.6-98.1-2.3c-14.4,1.4-28.3,2.5-42,7.2c-18.6,6.3-25.4,6-42.4-4.9
			c-13.9-8.9-24.7-11.5-40.2-6.4c-15.8,5.2-22.1,7.6-37.8,0.6c-7.4-3.3-14.6-8.3-23.2-7.1c-10.2,1.5-14.8,12.3-23.3,15
			c-9.2,2.9-16.6-4.1-24.8-6.9c-15.3-5.2-18.1-4.3-33.3,4.8"/>
		<path class="st4" d="M490.5,714.9c-19.3,13.3-31,0.6-51.3-0.6c-14.7-0.9-28.9,4.9-44.5,3.3c-18.9-1.9-27.1-3.9-43.6,6.1
			c-19,11.5-23.6,7.2-41.9-6.8c-14.6-11.2-23.4-9.9-41.2-6c-15.9,3.5-25,4-40.8-0.9c-6.3-1.9-11.6-4-18.3-3.9
			c-11.2,0.3-17.5,8.9-27.2,10.8c-6.8,1.4-13.7-2.7-19.6-5.1c-16.7-7-21.2-6.7-36.9,3.1"/>
		<path class="st4" d="M490.5,709.1c-19.5,15-30.5-0.5-51.1-1.2c-15.4-0.5-27.8,7.4-44.7,5.1c-19.5-2.7-26.5-5.6-43.2,5.7
			c-18.8,12.7-23.5,7.7-41.8-7.1c-14.2-11.5-23.2-9.7-40.9-6.1c-15.9,3.2-25.7,3.7-41.6-0.7c-6.3-1.7-11.8-3.7-18.3-3.5
			c-10.9,0.3-17.6,8.1-27.2,9.9c-6.9,1.3-13.8-2.7-19.8-5.1c-16.6-6.8-21.1-6.5-36.6,3.2"/>
		<path class="st4" d="M490.5,703.2c-19.5,15.4-30.3-1.5-51-1.7c-16.1-0.2-27,9.5-44.8,6.6c-19.9-3.3-26-7.9-42.9,4.5
			c-18.6,13.6-23.4,8.6-41.7-6.8c-23.3-19.6-54.5,0.9-82.9-6.2c-6.3-1.6-11.9-3.5-18.4-3.4c-10.8,0.2-17.6,7.4-27.1,9.1
			c-7,1.3-13.8-2.4-20-4.9c-16.5-6.6-20.8-6.5-36.3,2.8"/>
		<path class="st4" d="M490.5,697.4c-19.2,11.8-31.9-2.6-52.2-1.7c-16.3,0.7-27.5,10.5-45.6,7.4c-17.4-3-24.3-10.7-40,1
			c-21.5,16-23.4,8-44.8-6.7c-24.4-16.8-51.7,4.4-78.7-1.3c-7.9-1.7-15.7-5.6-23.9-5.2c-9.1,0.4-14.5,6.4-22.6,8.5
			c-9.8,2.5-17.4-2.6-26.4-5.3c-14-4.2-16.8-4.1-30.9,3.3"/>
		<path class="st4" d="M234.8,674.3c-2.9,0.7-6,0.8-9.4,0.3c-7.9-1.3-14.1-6.8-21.9-8.4c-10.2-2.1-13.5,1.5-22.9,5
			c-19.9,7.4-34.5-5.6-55.3-3.1"/>
		<path class="st4" d="M490.5,668.1c-16.6-2.3-33.7-4.3-50.4-1.9c-16.7,2.3-27,18.4-42.4,20.8c-4.1,0.6-7.6,0-10.8-1.2"/>
		<path class="st4" d="M234.8,678.9c-2.9,0.5-5.9,0.5-9-0.1c-7.7-1.4-14-6.3-21.7-7.5c-9.9-1.6-14,2.3-23.2,5.4
			c-19.6,6.7-35-6.8-55.6-2.7"/>
		<path class="st4" d="M490.5,674c-16.7,0-34-3.9-50.5-2c-16,1.9-27.4,16.6-42.8,18.1c-4.1,0.4-7.7-0.4-11-1.7"/>
		<path class="st4" d="M234.8,683.4c-2.8,0.3-5.7,0.2-8.7-0.4c-7.5-1.5-13.9-5.9-21.5-6.7c-9.6-1.1-14.5,3.1-23.4,5.9
			c-19.7,6.1-35-8.1-55.8-2.3"/>
		<path class="st4" d="M347.2,688.4c-2.6,2.1-5.3,4.1-8.5,4.8c-8.4,2-14.4-0.8-20.2-4.8"/>
		<path class="st4" d="M490.5,679.8c-17.3,2.4-33.6-3.7-50.6-2.1c-15.5,1.4-27.7,14.8-43.2,15.3c-6.5,0.2-11.8-2.1-16.8-4.7"/>
		<path class="st4" d="M385.3,652.1c0.5,0.3,1.1,0.5,1.6,0.7"/>
		<path class="st4" d="M357.2,688.4c-0.7,0.3-1.4,0.6-2.2,1c-6.1,3.2-10,8.5-17,10.1c-12.9,3-17.1-3.9-26.4-11.2"/>
		<path class="st4" d="M234.8,688.4c-1.9,0-3.9-0.1-5.9-0.3c-7-0.8-13.5-5.9-20.4-6.6c-12.9-1.4-17,4.1-28.6,6.9
			c-9.2,2.2-13.8,0.3-22.9-2.5c-13.9-4.2-16.6-5.6-31.6-0.2"/>
		<path class="st4" d="M490.5,685.7c-17.8,5.1-31.6-2.8-49.3-2.1c-17,0.7-30.1,13.8-47.7,12.2c-8.7-0.8-14.8-5-21-7.4"/>
		<path class="st4" d="M262.5,688.4c-11.5,2.6-23.3,5.4-35.9,3.1c-6.6-1.2-13-5.3-19.8-5.5c-9.7-0.3-14.2,4.5-22.8,7.1
			c-11.8,3.6-16.6,0.3-27.4-3.1c-13.9-4.3-16.8-4.9-31.2,1.6"/>
		<path class="st4" d="M490.5,691.5c-19.2,8.6-33.9-3.7-53.5-1.5c-14.7,1.7-25.7,10.8-41.5,9.3c-18.4-1.7-25-12.9-41.8-3.1
			c-20.3,11.8-22.2,14.3-43.9-2.5c-3-2.3-6-4.1-9-5.4"/>
		<path class="st4" d="M234.8,670c-3,0.8-6.2,1.2-9.7,0.6c-8.1-1.3-14.1-7.2-22-9.2c-10.5-2.6-13,0.7-22.7,4.6
			c-20.5,8.2-33.8-4.4-55.1-3.5"/>
		<path class="st4" d="M490.5,662.5c-16.9-4.5-33-4.7-50.3-1.9c-17.8,2.9-26.1,19-42,23c-4.4,1.1-8,0.7-11.2-0.7"/>
		<path class="st4" d="M234.8,665.5c-3,1.1-6.3,1.5-10,0.9c-8.4-1.2-14.2-7.6-22.2-10c-10.8-3.2-12.4-0.2-22.4,4.1
			c-21.2,9.1-32.8-2.9-54.9-3.9"/>
		<path class="st4" d="M299.2,652.1c-10.2-5.2-20.3-7.4-33.4-4.6c-4,0.8-7.4,2.6-10.6,4.6"/>
		<path class="st4" d="M490.5,656.6c-17.5-7-31.9-5.1-50.2-1.8c-8.7,1.6-15.1,3.2-22.3,8.7c-6,4.6-11.9,14-19.4,16.2
			c-4.6,1.4-8.4,1-11.7-0.5"/>
		<path class="st4" d="M362.4,652.1c-1.8-0.5-3.7-0.8-5.9-0.6c-1.6,0.1-3.2,0.3-4.6,0.6"/>
		<path class="st4" d="M234.8,662.1c-2.4,1-4.9,1.6-7.6,1.5c-7.9-0.4-15.4-7.4-21.9-10.8c-13.6-7.1-14.8-2.1-26.9,3.4
			c-20.5,9.3-31.9-2.7-53-5.3"/>
		<path class="st4" d="M310,652.1c-0.7-0.4-1.3-0.8-2-1.3c-12.6-8-26-13.7-41.5-10.5c-7.2,1.5-12.8,6.7-18.3,11.7"/>
		<path class="st4" d="M490.5,650.8c-17.6-9.5-29.8-6-48.7-2.1c-10.9,2.3-17.8,4.6-26.6,11.9c-6.2,5.2-10.5,13-18.9,14.6
			c-3.8,0.7-6.8,0.3-9.5-1"/>
		<path class="st4" d="M234.8,657.7c-2.4,1.2-5,1.9-7.9,1.8c-8-0.2-15.8-7.8-22.2-11.5c-13.7-8-14.4-3.2-26.6,2.8
			c-21.2,10.3-31.2-1.1-52.7-5.8"/>
		<path class="st4" d="M372.9,652.1c-4-5.5-8.6-9.9-16.1-9.3c-22,1.6-26,15.9-48.9,2.2c-12.9-7.7-26.2-14.5-42-11.2
			c-10.2,2.1-16.5,11.5-23.6,18.3"/>
		<path class="st4" d="M490.5,644.9c-18.2-12.2-28.6-6.8-48.6-2.1c-10.8,2.6-17.8,4-26.5,11.5c-6.2,5.3-10.1,13.7-18.6,15.3
			c-4,0.8-7.2,0.2-9.9-1.3"/>
		<path class="st4" d="M490.5,615.7c-17.9-5-30.2,5.5-47.8,3.8c-9.1-0.9-17.7-7.3-27.4-4.9c-8,2-13.5,10.7-21,13.2
			c-21.5,7.3-21.8-21.2-40.3-23.1c-16.2-1.7-27.5,14-45.5,11.2c-13.2-2-22.6-1.5-36.1-0.2c-15.6,1.5-32.3,7-47.5,7.1
			c-15.6,0-29.9-6.9-45.7-6.9c-18,0-35.9,0-53.9-0.3"/>
		<path class="st4" d="M490.5,621.5c-18.7-7-29.7,3.3-48.3,2.6c-8.8-0.3-17.2-5.4-26.3-2.3c-7.6,2.6-13,11.8-20.5,14.3
			c-21.4,7.1-22.2-22.8-40.5-24.4c-17.3-1.6-26.7,14.6-46.3,10.1c-13.9-3.2-23.2-4.3-37.8-2.5c-15.6,1.9-31,11.2-46.1,10.8
			c-16.4-0.4-28.4-9.1-45.4-7.3c-18.7,1.9-35.2,0-54-1.2"/>
		<path class="st4" d="M490.5,627.4c-18.6-8.8-28.2,0.2-47.2,1.4c-11.3,0.7-19.2-2.8-29.9,3c-6.9,3.8-11.5,11.4-19.4,13
			c-19.7,4.1-20.7-25.3-39.6-25.2c-19.2,0.1-25.4,15.8-46.5,7.8c-13.1-5-23.2-6.7-37.5-4.9c-6.3,0.8-15.5,1.6-21.2,4.4
			c-8,3.9-11.9,11.1-21.9,11.3c-7.9,0.1-15.3-4.8-22.5-7.4c-12.7-4.5-14.7-3.3-27.1-0.7c-19,4.1-33.3-0.5-52.4-2.7"/>
		<path class="st4" d="M385.3,652.1c-11.2-5.7-14.4-25.6-29.9-25.2c-20.2,0.6-25.5,16.4-47.4,6.3c-13.2-6-24.3-9.7-39.2-7.3
			c-6.4,1-14.3,2.9-19.9,6.3c-7.8,4.9-10.9,13.4-21.7,13.4c-8.1,0-15.3-6.1-22.4-9c-13.7-5.6-13.9-3.6-26.9,0.5
			c-20.1,6.4-32.3-0.6-52.5-4"/>
		<path class="st4" d="M490.5,633.2c-18.7-10.6-28.1-2.4-47.7,0.1c-11,1.4-18.7-0.4-28.6,6.1c-6.7,4.3-10.9,12.2-19.1,13.9
			c-3.2,0.6-5.9,0.4-8.2-0.5"/>
		<path class="st4" d="M377.8,652.1c-5.7-8.2-10.5-18.3-21.6-17.7c-21,1.2-25.8,16.7-48.3,4.7c-13.1-7-25.5-12.7-41-9.8
			c-16.5,3.2-24.3,24-40,23.8c-7.9-0.1-15.8-7-22.3-10.7c-13.4-7.5-14.3-3.5-26.7,1.8c-20.9,8.9-31.5-0.6-52.6-5.2"/>
		<path class="st4" d="M490.5,639.1c-18.6-12.2-28.1-5.2-48.2-1.2c-10.8,2.2-18.2,2.1-27.3,9.2c-6.4,4.9-10.3,13.2-18.8,14.8
			c-3.7,0.7-6.7,0.2-9.3-1"/>
		<path class="st4" d="M490.5,610.1c-17.9-3.3-31.4,7.7-49.1,4.6c-8.9-5.9-18.6-8.1-29-6.4c-7.4,3.9-14.6,8.2-21.6,12.8
			c-20,5.7-21.8-22.6-41.3-22.9c-7.2,2.1-14,5.3-20.3,9.4c-6.7,4.3-13.7,5.1-21.2,2.4c-12,0.1-22.7,1.7-34.9,2.6
			c-9.3,0.3-18.5-0.2-27.7-1.5c-7.2,4-14.9,5.6-23.2,4.9c-16.5-0.5-32.5-6.3-49-7.3c-16-1-31.9,0.7-47.8,1.3"/>
		<path class="st4" d="M490.5,604.2c-17.3-1.6-31.5,9.6-48.7,5.7c-9-6.7-19.1-9.7-30.1-9c-7.7,3.3-15.1,7.3-22,12
			c-20.4,6.1-21.5-21.5-41.2-21.8c-7.2,1.8-13.9,4.9-20,9.3c-6.3,4.5-13.2,5.8-20.6,3.8c-10.8,1.1-22.1,4.3-33.1,5
			c-10-0.1-19.8-1.5-29.4-4.3c-7.4,2.7-15.1,4-23,4c-17.3,0.3-32.6-5.2-49.4-7.8c-16.3-2.5-31.5,1.7-47.7,3.2"/>
		<path class="st4" d="M490.5,598.3c-17,0.1-31.1,11.5-48.2,6.7c-9.2-7.4-19.6-11.3-31.3-11.6c-8,2.6-15.5,6.3-22.4,11.3
			c-20.8,6.6-21.2-20.4-41-20.7c-7.3,1.5-13.8,4.6-19.7,9.1c-5.9,4.7-12.6,6.4-20,5.2c-9.8,1.9-21.3,6.8-31.3,7.4
			c-10.8-0.5-21.1-2.9-31.1-7.1c-7.6,1.4-15.2,2.4-22.8,3c-19.5,1.4-31.4-3.9-49.8-8.4c-16.8-4-31.1,2.6-47.5,5.1"/>
		<path class="st4" d="M490.5,592.5c-17,1.7-30.3,13.5-47.8,7.8c-9.4-8.2-20.2-12.9-32.4-14.3c-8.3,1.9-15.9,5.4-22.8,10.5
			c-21.1,7.2-20.8-18.8-40.8-19.5c-7.3,1.2-13.7,4.2-19.3,9c-5.6,4.8-12.1,7-19.5,6.5c-9,2.7-20.1,9.2-29.6,9.8
			c-11.6-1.1-22.5-4.4-32.9-9.9c-7.6,0.1-15.2,0.8-22.7,2c-22.5,2.7-29.4-2.3-50.1-8.9c-17.5-5.6-30.6,3.6-47.3,6.9"/>
		<path class="st4" d="M490.5,563.2c-16.5,10.3-26.1,20.1-46.2,10.6c-9.3-9.6-20.4-15.8-33.3-18.4c-8.6,0.8-16.6,3.5-24,8.1
			c-22,7.3-20.9-14.6-41.5-16.1c-11.9-0.9-26.5,12.1-37.7,15.9c-9,3-22,8-31.7,8.1c-10.6-1.1-20.9-3.8-30.8-8
			c-7.6,1-15.1,2.3-22.5,3.9c-7.9,1.8-15.9,2.3-24,1.5c-10.6-2.9-20-8.2-28.1-16c-19.5-8.1-28.1,4.9-45.6,10.5"/>
		<path class="st4" d="M490.5,569.1c-16.9,8.5-26.8,19.3-46.4,10.3c-9.5-9.6-20.7-15.8-33.7-18.7c-8.7,0.7-16.6,3.5-23.8,8.4
			c-22.1,7.8-20.4-15-41.2-16.5c-11.4-0.9-27,12.5-37.5,16.6c-8.6,3.4-20.5,9.8-29.9,10.1c-11.4-1.5-22.3-4.9-32.6-10.3
			c-7.6-0.1-15.1,0.7-22.5,2.7c-7.9,2.1-15.9,3-24.1,2.7c-10.6-2.4-19.8-7.6-27.6-15.7c-19.3-8.3-28.7,5-46,10.5"/>
		<path class="st4" d="M490.5,574.9c-17.1,6.8-27.5,18.4-46.7,10.1c-9.7-9.6-21-15.9-34.1-19c-8.7,0.6-16.6,3.5-23.7,8.6
			c-22.1,8.4-19.9-15.4-40.9-17c-10.8-0.8-27.6,12.9-37.2,17.3c-8.2,3.8-18.8,11.6-28.1,12.2c-12.2-1.9-23.7-6.1-34.3-12.7
			c-7.6-1.3-15-0.8-22.4,1.4c-7.9,2.3-16,3.6-24.2,3.8c-10.6-1.9-19.7-7-27.1-15.4c-19-8.4-29.3,5.1-46.5,10.6"/>
		<path class="st4" d="M490.5,580.8c-17.2,5.1-28.2,17.6-46.9,9.8c-9.8-9.6-21.4-16-34.6-19.3c-8.8,0.5-16.6,3.5-23.5,8.9
			c-22.1,9-19.4-15.8-40.5-17.4c-10.2-0.8-28.2,13.3-37,18c-8,4.3-17,13.4-26.3,14.3c-21.7,2.1-34.8-19.8-58.5-14.8
			c-7.9,2.5-16.1,4.2-24.3,5c-10.6-1.3-19.5-6.4-26.5-15c-18.8-8.5-29.8,5.2-47,10.6"/>
		<path class="st4" d="M490.5,586.6c-17.1,3.4-29.3,15.5-47.4,8.8c-9.6-8.9-20.8-14.5-33.5-16.9c-8.6,1.2-16.3,4.4-23.2,9.7
			c-21.6,8.1-20.2-17.2-40.7-18.4c-7.3,0.9-13.6,3.9-19,8.9c-5.3,5-11.6,7.6-18.9,7.9c-8.4,3.5-18.5,11.5-27.8,12.2
			c-12.4-1.8-23.9-6-34.6-12.6c-7.6-1.2-15.1-0.9-22.5,1c-8,2-16,3.1-24.2,3.4c-10.1-1.3-18.8-5.5-26.3-12.8
			c-18.2-7.1-30.2,4.4-47.2,8.8"/>
		<path class="st4" d="M490.5,558.7c-16.2,11.7-25.6,20.7-46,10.7c-9.1-9.6-20.1-15.7-32.9-18.1c-8.6,0.9-16.6,3.5-24.1,7.9
			c-22,6.8-21.3-14.3-41.7-15.8c-12.3-0.9-26.2,11.9-37.9,15.3c-9.5,2.8-23.1,6.5-33.1,6.5c-10-0.9-19.8-2.9-29.4-6.2
			c-7.5,1.8-15,3.4-22.5,4.9c-25.7,4.1-29.9-6.4-52.4-15.7c-19.6-8.1-27.7,4.8-45.2,10.5"/>
		<path class="st4" d="M490.5,552.8c-13.6,11.7-25.2,21.7-43.6,12.2c-10.5-5.4-19.6-17.4-32.1-18.9c-8.4-1-16.4,3.8-24,6.3
			c-6,2-11.9,5.4-18.5,3.1c-8.1-2.8-12.6-14.7-22.3-16.7c-14.5-3-28.5,11-42,13.8c-27.8,5.7-54.8,1.5-82.3,6.3
			c-19.3,3.3-32-1.3-48.2-11.5c-23.3-14.7-30.1-1.7-52.1,5.4"/>
		<path class="st4" d="M490.5,547c-13,13.3-24.5,22.6-43.3,12.5c-10.3-5.5-19.3-17.2-31.8-18.6c-8.3-0.9-16.5,3.8-24.1,6.2
			c-6.2,1.9-12.4,5.1-19,2.7c-8.1-2.9-12.5-14.1-22.1-16c-14.6-3-28.5,10.7-42.2,13c-11.3,1.9-24.2,2.6-35.6,2.5
			c-17.2-0.1-30,2.4-46.7,5.3c-19,3.3-32.5-3.3-48.4-13c-9.7-5.9-17.4-9.8-28.4-6.5c-9.4,2.8-12.6,10.9-23.5,11.9"/>
		<path class="st4" d="M490.5,541.1c-11.6,14-22.5,23.3-41,13.8c-12.9-6.6-21.7-19.2-37.2-18.8c-8.3,0.2-15,4.1-22.9,6.2
			c-19.5,5.2-22.5-10-40.1-13.4c-14.5-2.8-27.1,10.2-41.3,12.2c-11.4,1.6-24.4,0.3-36,0.3c-6.8,0-15.6-1.6-22.2-0.2
			c-7.3,1.6-14,7.1-21.5,8.8c-20.4,4.7-36.5-6-53.5-15.5c-9.7-5.4-16.8-8.7-27.2-5c-8.9,3.1-11.6,10.8-22.2,11.6"/>
		<path class="st4" d="M490.5,511.9c-11.1,15.9-22,21.7-41,13c-12.4-5.7-20-15.9-34.6-16.1c-7.7-0.1-15,2.6-22.5,3.8
			c-17.5,2.8-26.1-6.3-42.3-8.3c-14.6-1.8-27.6,8.1-42.3,7.6c-14.2-0.5-27.7-8.8-42.3-7.4c-16.6,1.6-22.5,17-37.8,20.7
			c-19.6,4.7-37.5-11.3-53.6-19.7c-9.7-5.1-17.3-8.6-27.7-4.9c-8.6,3.1-10.8,10.7-21.2,11.3"/>
		<path class="st4" d="M490.5,517.7c-11.2,22.6-23.5,23.3-45,11.1c-9.2-5.2-16.4-12.7-26.7-14.2c-9.5-1.4-18.2,3.6-27.3,5.2
			c-19.4,3.4-25.9-10.7-44-11.7c-13.9-0.7-25.7,9.1-39.6,9.5c-13.6,0.4-26.7-7.2-40.3-7.2c-19.1,0-23.1,16.5-40,21.1
			c-18.6,5.1-34.8-11.1-50-19.1c-10.6-5.6-21.5-11.1-32.9-5.7c-7.6,3.6-9.4,10.5-19.3,10.9"/>
		<path class="st4" d="M490.5,523.6c-11.4,22.5-23.4,23.7-45,11.3c-9.3-5.3-16.6-13.2-27.2-14.7c-9.7-1.4-18.3,4-27.5,5.8
			c-19.9,3.9-25-11.8-43.5-12.8c-14-0.8-25.5,9.6-39.4,10.5c-13.2,0.8-26-5.5-39.1-5.7c-19.1-0.3-24.3,14.3-41.1,18.9
			c-18.9,5.1-34.7-10.2-50-18.4c-10.6-5.6-21.4-11.1-32.9-5.8c-7.7,3.6-9.5,10.5-19.4,10.9"/>
		<path class="st4" d="M490.5,529.4c-13.3,22.3-25.6,22.2-47.5,9.6c-9.4-5.4-16.4-12.9-27.3-13.5c-8-0.5-15.1,3.1-22.6,5
			c-9,2.3-15,3.7-23.5-0.3c-7.9-3.7-11.7-11.4-21.4-12.4c-14-1.4-26.6,10.2-40.3,11.3c-12.8,1.1-25.6-3.2-38.4-3.3
			c-18.5-0.2-27.5,13.4-44.2,16.2s-30.7-8.3-44.2-15.9c-11.9-6.8-22.6-13.3-35.2-8c-8.1,3.4-10.4,10.7-20.5,11.3"/>
		<path class="st4" d="M490.5,535.3c-10.9,15.5-21.6,24.2-40.7,14.2c-12.8-6.7-21.4-19-36.9-18.6c-8.2,0.2-15.2,4-23,5.9
			c-19.3,4.7-23-9.8-40.5-13c-14.6-2.7-27.2,9.9-41.5,11.5c-12.3,1.4-25.4-1.8-37.8-1.7c-6.2,0-14.9-0.7-20.8,1.4
			c-7.4,2.6-13.1,9-21.2,10.8c-20.2,4.6-36.9-8-53.7-17c-9.7-5.3-17-8.7-27.5-5c-8.7,3.1-11.1,10.8-21.7,11.6"/>
		<path class="st4" d="M490.5,506.3c-13.3,13.5-25.2,18.5-43.8,10.5c-21.1-9.2-27.2-15.3-50.6-11.4c-6.9,1.1-15.3,3.2-22.4,1.9
			c-7.5-1.4-14.2-6.6-22.1-7.3c-15.2-1.4-28.8,7.5-44.1,5.7c-14.6-1.7-27.6-8.7-42.7-6.5c-15.8,2.3-24.1,16.7-39.7,19.3
			c-18.1,3.1-33.4-9-48.3-17.4c-9.8-5.5-18-9.6-28.8-6.3c-9.1,2.8-12,10.6-22.7,11.5"/>
		<path class="st4" d="M490.5,500.4c-15,11.3-28.4,15.2-46.6,8.1c-21-8.3-26.9-12.7-49.7-9.8c-7.8,1.4-15.6,2-23.5,1.8
			c-7.2-3.6-14.8-5.2-22.8-4.8c-13.6,0.4-26.1,7.8-39.9,4.7c-15.3-3.4-27.7-11.1-44.2-7.2c-15.6,3.6-25.1,17.6-41.5,19.2
			c-22.1,2.1-33.8-14.8-52.7-21.9c-19.9-7.5-26.7,4.3-44.2,10"/>
		<path class="st4" d="M490.5,494.6c-16.8,5.9-29.1,12.7-47.3,6.8c-19.1-6.2-27.5-11.7-48-9.8c-16.4,1.5-31.1-0.8-47.2,0.1
			c-13.7,0.8-26.3,7-40.1,2.9c-15.9-4.8-26.4-11.5-43.9-7.2c-15.3,3.8-25.9,16.3-41.8,18.1c-22.7,2.4-32.7-13.3-52-20.8
			c-19.5-7.5-27.4,4.5-44.9,9.9"/>
		<path class="st4" d="M490.5,488.7c-17.2,0.6-30.2,9.9-48,5.4c-17.2-4.3-28-10.9-46.4-9.8c-16,1-32.1,1.7-48,3.2
			c-13.8,1.4-26.6,6.3-40.2,1.1c-16.6-6.3-25.1-12.1-43.6-7.2c-15,4-26.5,15-42.2,16.9c-23.2,2.8-31.6-11.8-51.2-19.6
			c-19.2-7.6-28.2,4.6-45.6,9.8"/>
		<path class="st4" d="M490.5,459.4c-21-15.6-28.7-6.7-51.6-1.6c-16.3,3.7-23.1-7.6-38.1-9.3c-18.2-2.1-34.9,14.5-51.9,18.5
			c-15.7,3.8-28.4,2.8-40.9-7.6c-14.6-12.2-19.1-17.2-37.8-9.5c-15.1,6.3-26.7,9.7-43,12.7c-21.5,3.9-28.8,4-46.2-8
			c-21-14.5-34.6-0.3-55.7,4.8"/>
		<path class="st4" d="M490.5,465.3c-19.9-11.9-27.3-4.1-47.9-0.4c-16.5,2.9-27.7-7.9-43-8.8c-32-1.8-59.7,32.2-91.6,9.2
			c-16.1-11.6-20.6-15.7-40.1-8.2c-13.6,5.2-25.8,9.5-40.2,12.5c-7.1,1.5-15.3,3.5-22.6,2.8c-12.4-1.1-17-7.5-27.3-13.1
			c-21-11.4-31.2,0.6-52.3,6"/>
		<path class="st4" d="M490.5,471.1c-19.4-8.6-29,0.6-48.6,1.4c-14.5,0.6-26.6-8.2-40.5-9.5c-33.4-3.1-61.9,27.6-94.4,6.7
			c-15.5-10-22.6-12.9-40.5-6.2c-13.8,5.2-26.9,10.7-41.6,13.4c-20.1,3.7-28.9-1.3-45.8-10.7c-22.5-12.6-31-1.2-53.7,4.9"/>
		<path class="st4" d="M490.5,477c-17.7-5-30.2,3.9-47.8,2.9c-14.4-0.8-27.7-9.1-42.2-9.8c-31.5-1.5-63.4,22.3-93.5,5.6
			c-15.4-8.6-23.4-12.1-40.9-6.2c-13.9,4.6-26.7,11.7-41.3,14.4c-19.9,3.6-29.5-2.7-46.3-11.8c-23-12.6-30.5-1.4-53.3,5"/>
		<path class="st4" d="M490.5,482.8c-16.9-1.5-31.8,6.9-48.8,4.1c-15.6-2.6-28.3-10.3-44.7-9.8c-27.1,0.9-63,17.6-89.1,5.6
			c-17.3-7.9-23.8-12.7-43.3-7.1c-14.7,4.2-27.1,13.7-42.5,15.8c-23.6,3.2-30.5-10.2-50.5-18.4c-18.8-7.7-29,4.7-46.2,9.7"/>
		<path class="st4" d="M490.5,453.4c-21.2-15.5-28.8-6.7-51.8-1.8c-16.3,3.5-23.1-7-38.2-8.7c-18.2-2-34.5,14.1-51.5,18.1
			c-15.6,3.6-28.4,2.5-41-7.6c-14.6-11.8-19.2-16.2-37.6-8.9c-15.2,6.1-26.9,8.8-43,11.6c-20.9,3.5-28.7,4.2-46.1-7.1
			c-20.7-13.4-35-0.2-55.8,4.4"/>
		<path class="st4" d="M490.5,447.5c-21.3-13.9-30.4-5.6-53.2-1.3c-14.2,2.7-22.4-5.2-35.7-7.4c-18.5-3.1-33.9,11.4-51.3,15.4
			c-16.8,3.9-29.6,1.9-43.4-8c-14.3-10.4-20.7-12.7-37.6-6.1c-14.8,5.8-28.8,8.1-44.6,10.3c-16.8,2.4-26.8,3.4-41.6-5.4
			c-22.6-13.4-34.8-2.1-57.9,2.5"/>
		<path class="st4" d="M490.5,441.6c-19.4-11.2-28.5-7-49-1.9c-16.7,4.2-27.4-5.1-43-6.1c-32.5-2.1-57.4,28.9-90.6,8
			c-16-10.1-21.1-12.1-39.5-6.2c-13.8,4.4-26.1,6.2-40.6,8.3c-19.9,2.8-31,1.3-49.2-6.5c-19.5-8.3-33.4,0.8-53.3,4.4"/>
		<path class="st4" d="M490.5,435.8c-19-9.7-29.1-6-49-1.7c-16.4,3.5-28.2-4.2-43.8-5.3c-31.9-2.2-57,25.1-89.8,7
			c-15.8-8.7-21.7-10.3-39.5-5.4c-13.8,3.8-26.3,5.4-40.5,7.2c-19.2,2.4-31.2,1.1-49.2-5.6c-19.2-7.2-33.9,0.8-53.4,3.9"/>
		<path class="st4" d="M490.5,406.5c-60.3-8.3-122.2,6.3-182.6,0c-28.3-2.9-56.2-0.3-84.7,0.7c-32.8,1.2-64.9-2.1-97.8-0.7"/>
		<path class="st4" d="M490.5,412.4c-18.3-3.9-33.3-1.7-51.7-0.4c-15,1.1-29.2-2.3-44.1-2.6c-29.8-0.6-56.5,7.9-86.8,3
			c-28.5-4.6-55.8-0.5-84.9,1.1c-16.7,0.9-30.4-1.1-46.7-3.6c-16.8-2.6-34.2,1.4-51,2.5"/>
		<path class="st4" d="M490.5,418.2c-19-5.4-32.5-2.4-51.7-0.6c-15,1.4-28.5-3.1-43.3-3.5c-30.2-0.9-56.9,13.8-87.6,4.1
			c-27.5-8.7-56.4-0.6-85.1,1.4c-17.5,1.3-29.9-1.4-46.8-4.8c-16.7-3.4-34.1,1.9-50.7,3.4"/>
		<path class="st4" d="M490.5,424.1c-18.7-6.7-31.2-3.6-50.3-1c-14.7,2-27-3-41.4-4c-32.8-2.2-58.1,15.9-91.5,4.2
			c-26.7-9.4-53.8-0.1-81.9,2.3c-16.5,1.4-29,0.7-44.8-3.7c-19.5-5.4-35.6,0-55.3,2.2"/>
		<path class="st4" d="M490.5,429.9c-19.2-8.3-30.5-4.5-50.3-1.1c-14.9,2.5-26.2-3.6-40.5-4.8c-16.5-1.4-30.7,7-46.5,9.9
			c-16.7,3.1-30.5,1.7-45.9-4.8c-26.5-11.3-53.5-0.2-81.9,2.8c-17.1,1.8-28.7,0.9-44.8-4.5c-19.8-6.6-35-0.1-55.2,2.6"/>
		<path class="st4" d="M490.5,402c-60.7-4.8-121.9,3.6-182.6,0c-60.1-3.6-122.4-1.5-182.6,0"/>
		<path class="st4" d="M490.5,396.1c-121.7-0.4-243.4-0.1-365.2,0"/>
	</g>
	<g>
		<path class="st5" d="M365.3,678.5v-16.6h4.3v7h1.3v-7h4.3v16.6h-4.3v-5.9h-1.3v5.9H365.3z"/>
		<path class="st5" d="M353.7,668.8c0-1.7,0-2.8,0.1-3.5s0.3-1.3,0.7-1.9s1-1,1.7-1.3s1.5-0.5,2.5-0.5c0.9,0,1.7,0.1,2.4,0.4
			c0.7,0.3,1.3,0.7,1.7,1.3s0.7,1.2,0.8,1.9s0.1,1.9,0.1,3.6v2.8c0,1.7,0,2.8-0.1,3.5s-0.3,1.3-0.7,1.9c-0.4,0.6-1,1-1.7,1.3
			s-1.5,0.5-2.5,0.5c-0.9,0-1.7-0.1-2.4-0.4c-0.7-0.3-1.3-0.7-1.7-1.3s-0.7-1.2-0.8-1.9s-0.1-1.9-0.1-3.6V668.8z M358,674.2
			c0,0.8,0,1.3,0.1,1.5s0.3,0.3,0.5,0.3s0.4-0.1,0.5-0.3s0.2-0.7,0.2-1.5v-7.8c0-1,0-1.6-0.1-1.8s-0.3-0.3-0.5-0.3
			c-0.3,0-0.5,0.1-0.6,0.4s-0.1,0.9-0.1,1.9V674.2z"/>
		<path class="st5" d="M343.4,678.5v-3.3h2.6v-13.3h4.3v13.3h2.6v3.3H343.4z"/>
		<path class="st5" d="M322.5,678.5l1.9-16.6h5.4c0.5,2.6,0.9,5.5,1.3,8.7c0.2-1.4,0.6-4.3,1.2-8.7h5.4l1.9,16.6h-4.2l-0.5-5.8
			l-0.4-5.6c-0.2,2.9-0.6,6.7-1.2,11.4h-4.5c-0.1-0.5-0.2-2.3-0.5-5.5l-0.5-6.3c-0.2,4-0.6,7.9-1.2,11.8L322.5,678.5L322.5,678.5z"
			/>
		<path class="st5" d="M311.7,678.5v-16.6h4.3v7h1.3v-7h4.3v16.6h-4.3v-5.9H316v5.9H311.7z"/>
		<path class="st5" d="M309.9,678.5h-7.2v-3.3h2.9V672h-2.7v-3.2h2.7v-3.7h-3.2v-3.3h7.5L309.9,678.5L309.9,678.5z"/>
		<path class="st5" d="M301.2,678.5H294v-3.3h2.9V672h-2.7v-3.2h2.7v-3.7h-3.2v-3.3h7.5L301.2,678.5L301.2,678.5z"/>
		<path class="st5" d="M288.2,678.5v-13.3h-2.6v-3.3h6.9v16.6H288.2z"/>
		<path class="st5" d="M275.5,673.5h4v1.2c0,0.6,0.1,0.9,0.2,1.1s0.3,0.2,0.5,0.2c0.3,0,0.5-0.1,0.6-0.3s0.2-0.5,0.2-1
			c0-0.6-0.1-1-0.2-1.3s-0.5-0.6-1.2-1c-1.9-1.1-3.1-2.1-3.6-2.8s-0.7-1.9-0.7-3.5c0-1.2,0.1-2.1,0.4-2.6c0.3-0.6,0.8-1,1.6-1.4
			c0.8-0.4,1.7-0.6,2.8-0.6c1.2,0,2.1,0.2,3,0.7c0.8,0.4,1.4,1,1.6,1.7c0.3,0.7,0.4,1.6,0.4,2.9v1.1h-4v-2c0-0.6-0.1-1-0.2-1.2
			s-0.3-0.3-0.6-0.3s-0.5,0.1-0.6,0.3s-0.2,0.6-0.2,1c0,1,0.1,1.6,0.4,1.9c0.3,0.3,0.9,0.8,2,1.5s1.8,1.2,2.1,1.5
			c0.3,0.3,0.6,0.8,0.9,1.3c0.2,0.6,0.3,1.3,0.3,2.2c0,1.3-0.2,2.2-0.5,2.8s-0.8,1-1.6,1.4s-1.6,0.5-2.6,0.5c-1.1,0-2.1-0.2-2.9-0.5
			c-0.8-0.4-1.3-0.8-1.6-1.4c-0.3-0.6-0.4-1.5-0.4-2.8L275.5,673.5L275.5,673.5z"/>
		<path class="st5" d="M259.8,678.5l2.2-16.6h6.6l2.5,16.6h-4.6c-0.5-4.6-0.9-8.4-1.1-11.6c-0.2,3.2-0.5,6-0.7,8.5l-0.3,3.1H259.8z"
			/>
		<path class="st5" d="M251.9,678.5l-2.5-16.6h4.4l0.2,3h1.5l0.3-3h4.5l-2.2,16.6H251.9z M254.2,667.8c0.2,1.9,0.4,4.2,0.7,7
			c0.4-3.2,0.7-5.5,0.8-7H254.2z"/>
		<path class="st5" d="M239.1,678.5v-16.6h3.8l2.2,7.5v-7.5h3.6v16.6h-3.6l-2.4-7.5v7.5H239.1z"/>
	</g>
</g>
</svg>
